<svg width="27" height="26" viewBox="0 0 27 26" fill="none" xmlns="http://www.w3.org/2000/svg">
<path fill-rule="evenodd" clip-rule="evenodd" d="M13.501 2.16681C10.9323 2.16716 8.44758 3.08136 6.49122 4.74588C4.53486 6.4104 3.23451 8.71665 2.82278 11.2521C2.41105 13.7875 2.9148 16.3867 4.24392 18.5848C5.57303 20.7828 7.64081 22.4363 10.0774 23.2495C10.6183 23.3499 10.8502 23.0176 10.8502 22.7317C10.8502 22.4457 10.8502 21.7965 10.8502 20.8923C7.84389 21.5415 7.21018 19.4394 7.21018 19.4394C6.99877 18.777 6.55383 18.2139 5.9582 17.8551C4.97672 17.1905 6.03549 17.1982 6.03549 17.1982C6.37831 17.2467 6.70554 17.3728 6.99217 17.567C7.2788 17.7612 7.51726 18.0184 7.68933 18.3188C7.98868 18.8557 8.489 19.2518 9.08028 19.4199C9.67157 19.588 10.3054 19.5144 10.8425 19.2153C10.8861 18.667 11.1278 18.1533 11.5225 17.7701C9.12678 17.4919 6.59965 16.5645 6.59965 12.4222C6.58213 11.3463 6.98082 10.3053 7.71251 9.51637C7.38133 8.58449 7.42005 7.5611 7.82071 6.65692C7.82071 6.65692 8.72491 6.36325 10.7961 7.76206C12.567 7.279 14.4349 7.279 16.2058 7.76206C18.2693 6.36325 19.1735 6.65692 19.1735 6.65692C19.5742 7.5611 19.6129 8.58449 19.2817 9.51637C20.0134 10.3053 20.4121 11.3463 20.3946 12.4222C20.3946 16.58 17.8674 17.4919 15.4562 17.7624C15.7145 18.0242 15.9137 18.3383 16.0403 18.6836C16.167 19.0289 16.2181 19.3973 16.1904 19.764C16.1904 21.2092 16.1904 22.3762 16.1904 22.7317C16.1904 23.0872 16.3836 23.3576 16.9632 23.2495C19.403 22.4353 21.4729 20.7786 22.8018 18.5765C24.1307 16.3744 24.6317 13.771 24.2149 11.233C23.7981 8.69495 22.4908 6.38842 20.5274 4.727C18.564 3.06558 16.073 2.15793 13.501 2.16681Z" fill="white"/>
</svg>
