<svg width="214" height="197" viewBox="0 0 214 197" fill="none" xmlns="http://www.w3.org/2000/svg">
<g clip-path="url(#clip0_18_571)">
<path d="M10.767 94.8689C10.767 94.8689 9.27002 95.7659 9.41702 96.8459C9.56402 97.9259 14.652 121.344 14.943 121.779C15.234 122.214 17.124 127.014 17.124 127.014L46.56 121.341C46.56 121.341 48.252 116.106 48.252 115.668C48.252 115.23 42.288 89.1959 42.288 89.1959L38.952 87.3359L10.767 94.8689Z" fill="#92EDB1"/>
<path d="M29.145 115.815C34.1156 115.815 38.145 111.932 38.145 107.142C38.145 102.352 34.1156 98.469 29.145 98.469C24.1745 98.469 20.145 102.352 20.145 107.142C20.145 111.932 24.1745 115.815 29.145 115.815Z" fill="white"/>
<path d="M88.5781 59.832C88.5781 59.832 82.7371 60.609 82.3681 63.588C81.9991 66.567 80.5921 133.26 81.2371 134.709C81.8821 136.158 88.6591 170.796 88.6591 170.796H188.364C188.364 170.796 195.027 159.714 195.891 153.168C196.047 151.983 194.487 64.758 194.487 64.758L189.669 58.662L88.5781 59.829V59.832Z" fill="white"/>
<path d="M168.75 42.342H125.568L126.651 55.083L113.505 42.342H101.706V3.56104H168.75V42.342Z" fill="white"/>
<path d="M121.686 14.1691H109.329V34.0741H121.686V14.1691Z" fill="#92EDB1"/>
<path d="M140.634 14.1691H129.411V33.3151H140.634V14.1691Z" fill="#92EDB1"/>
<path d="M161.355 15.54H149.211V33.72H161.355V15.54Z" fill="#92EDB1"/>
<path d="M60.618 134.115C57.987 131.847 55.551 129.81 53.193 127.686C52.275 126.861 51.429 125.91 50.739 124.89C49.554 123.144 48.159 122.292 45.888 123.366C44.919 125.418 45.669 127.638 45.972 129.828C45.612 130.383 45.267 130.917 44.922 131.451C43.011 131.292 42.318 130.689 41.838 128.892C41.514 127.674 41.112 126.477 40.701 125.13C40.035 125.316 39.648 125.427 39.066 125.589C39.234 126.69 39.393 127.65 39.528 128.616C39.663 129.588 39.771 130.566 39.885 131.481C39.483 131.931 39.189 132.261 38.886 132.6C38.367 132.636 37.875 132.669 37.392 132.702C35.745 131.871 36.039 130.17 35.592 128.808C35.292 127.902 34.974 127.005 34.593 125.904C33.876 126.348 33.429 126.624 32.943 126.924C33.054 129.219 33.162 131.493 33.276 133.797C32.697 134.19 32.22 134.514 31.812 134.787C29.169 133.809 29.55 131.286 28.731 129.429C28.497 128.895 28.239 128.373 27.945 127.746C27.159 128.07 26.628 128.289 25.977 128.556C26.406 130.617 26.814 132.582 27.228 134.568C26.685 135.075 26.187 135.537 25.725 135.966C22.674 135.648 22.578 133.23 22.095 131.067C21.93 130.329 21.642 129.621 21.45 129.024C19.494 128.643 17.856 128.229 16.191 128.028C14.829 127.866 14.238 127.056 13.758 125.934C13.38 125.049 12.864 124.221 12.366 123.285C9.99003 123.567 7.79103 123.825 5.58003 124.086C5.04003 123.327 4.56003 122.655 4.07403 121.974C5.15103 120.633 6.40503 119.97 7.96503 119.826C8.60403 119.766 9.30603 119.73 9.84303 119.436C10.404 119.13 10.803 118.524 11.334 117.993C10.746 117.462 10.428 117.174 9.91803 116.712C8.25003 117.087 6.46503 117.489 4.62603 117.903C4.06503 117.027 3.61803 116.331 3.14403 115.59C3.58203 115.023 3.96903 114.528 4.25403 114.162C6.22803 113.553 8.04903 112.995 9.96303 112.404C9.53103 110.49 8.06103 110.427 6.88803 109.932C5.76003 110.346 4.65003 110.754 3.30903 111.246C2.63103 110.529 1.95003 109.809 1.20003 109.017C2.86203 106.629 5.51403 107.172 7.40703 105.996C7.48503 106.086 7.56303 106.176 7.63803 106.266C7.77003 105.834 7.89903 105.399 8.15403 104.556C6.92403 104.541 5.97603 104.433 5.05503 104.544C3.85503 104.691 2.67603 105.009 1.50303 105.252C1.08003 104.892 0.744033 104.607 0.384033 104.301C0.255033 103.728 0.126033 103.158 0.0090332 102.639C1.80003 100.818 4.26003 100.986 6.64503 100.149C6.79803 98.9159 7.08603 97.605 7.08903 96.294C7.09203 94.644 7.74303 93.4589 9.02703 92.4989C10.371 91.4969 11.667 90.429 12.78 89.5499C12.516 87.4799 12.291 85.722 12.087 84.132C13.581 82.47 14.277 82.413 15.546 83.535C16.137 85.287 16.674 86.877 17.238 88.551H19.485C19.08 86.685 18.717 84.999 18.33 83.205C18.789 82.68 19.302 82.0919 19.905 81.402C20.637 81.555 21.351 81.702 22.272 81.894C22.758 83.706 23.25 85.548 23.793 87.576C24.474 87.282 25.047 87.0359 25.704 86.754C24.591 84.879 25.131 82.977 25.536 81.126C25.617 80.76 26.517 80.2529 26.907 80.3489C27.648 80.5289 28.458 80.964 28.929 81.546C29.361 82.077 29.337 82.9559 29.595 83.652C29.895 84.459 30.282 85.2299 30.621 85.998C32.037 85.764 31.527 84.672 31.98 84.096C30.882 82.461 30.813 80.799 31.683 78.834H34.587C34.836 79.917 34.977 80.982 35.334 81.969C35.679 82.92 36.249 83.793 36.627 84.516C37.938 84.777 39.03 84.8849 40.047 85.2179C42.141 85.908 43.803 87.219 44.901 89.151C46.146 91.341 47.706 91.293 49.74 90.5699C50.019 90.4709 50.283 90.336 50.589 90.201C51.771 90.864 53.604 90.864 53.178 93.1889C52.848 93.507 52.422 93.9179 52.23 94.104C50.526 94.419 49.137 94.6769 47.58 94.965C47.493 95.6549 47.418 96.2309 47.343 96.813C49.056 97.353 50.406 97.005 51.687 96.1889C52.38 96.318 53.055 96.447 54.075 96.639C54.228 97.308 54.414 98.112 54.609 98.955C53.01 100.155 51.324 100.383 49.473 100.428C49.143 101.244 48.816 102.054 48.45 102.963C50.664 103.959 52.698 103.488 54.807 102.825C55.218 103.086 55.671 103.371 56.175 103.692C56.079 104.337 55.986 104.961 55.863 105.801C55.653 105.99 55.323 106.287 55.026 106.554C53.682 106.725 52.407 106.887 50.829 107.088C50.664 107.268 50.334 107.628 49.926 108.072C50.028 108.687 50.127 109.29 50.283 110.241C52.218 109.899 53.97 109.587 55.965 109.233C56.415 109.575 57.075 110.082 57.696 110.556C57.75 111.171 57.795 111.663 57.837 112.125C58.836 113.376 60.09 113.517 61.479 113.139C61.794 112.473 62.103 111.825 62.472 111.045C61.968 107.562 61.815 103.935 62.19 100.239C62.496 97.224 62.22 94.152 62.271 91.1069C62.316 88.374 62.553 85.6379 62.538 82.908C62.505 77.3789 62.445 71.844 62.22 66.321C62.115 63.741 62.727 61.407 63.72 59.103C63.897 58.692 64.059 58.275 64.215 57.885C66.945 55.926 69.987 55.089 73.317 55.104C74.952 55.113 76.587 54.825 78.222 54.84C85.203 54.9 92.181 55.032 99.159 55.119C101.43 55.149 103.701 55.086 105.972 55.137C107.508 55.17 109.047 55.437 110.577 55.395C112.791 55.332 114.999 55.08 117.24 54.906C117.345 54.321 117.42 53.889 117.537 53.229C116.274 52.317 114.915 51.429 113.664 50.406C111.852 48.924 109.758 48.048 107.577 47.349C106.884 47.127 106.023 46.884 105.396 47.103C102.609 48.081 100.731 46.668 98.925 44.907C98.322 44.319 97.707 43.743 96.939 43.008C96.483 35.949 96.837 28.716 96.711 21.492C96.687 20.157 96.426 18.819 96.441 17.487C96.486 14.103 96.456 10.704 96.798 7.34696C96.957 5.78096 97.911 4.29896 98.499 2.78696C101.016 1.82996 103.335 0.665958 105.99 0.584958C108.774 0.497958 111.558 0.371958 114.342 0.293958C118.425 0.179958 122.508 -0.00604181 126.588 0.0119582C137.637 0.0569582 148.683 0.191958 159.732 0.290958C160.281 0.296958 160.839 0.353958 161.379 0.281958C164.478 -0.141042 167.13 1.04396 169.617 2.46596C172.173 6.13796 172.644 10.098 172.017 14.352C171.798 15.834 172.023 17.448 172.353 18.933C172.89 21.354 172.854 23.715 172.608 26.169C172.29 29.331 172.239 32.529 172.284 35.712C172.32 38.292 172.041 40.77 171.081 43.161C170.766 43.944 170.409 44.706 170.166 45.261C167.724 47.094 165.036 47.211 162.432 47.301C159.405 47.409 156.366 47.055 153.333 47.07C148.2 47.094 143.07 47.265 137.94 47.343C135.57 47.379 133.197 47.331 130.827 47.361C129.906 47.373 128.988 47.496 127.83 47.586V52.938C128.904 53.727 129.855 54.429 130.818 55.14C134.448 53.991 138.042 54.849 141.633 55.068C142.131 55.098 142.629 55.125 143.127 55.125C149.271 55.128 155.415 55.152 161.556 55.113C163.542 55.101 165.528 54.798 167.508 54.855C170.832 54.951 174.15 55.386 177.468 55.374C179.979 55.365 182.484 54.816 185.001 54.633C187.488 54.453 189.933 54.747 192.279 55.698C196.239 57.3 197.436 60.594 197.718 64.452C198.531 75.549 198.321 86.667 198.306 97.782C198.303 101.016 198.081 104.247 198.042 107.481C198.027 108.765 198.156 110.064 198.384 111.327C198.495 111.939 198.99 112.482 199.272 112.989C202.878 111.849 206.232 110.787 209.907 109.623C210.714 110.004 211.776 110.505 212.769 110.976C212.982 111.588 213.144 112.053 213.288 112.473C212.361 118.107 209.607 122.7 205.902 126.885C204.102 128.919 202.119 130.662 199.953 132.249C199.65 132.471 199.368 132.816 199.245 133.164C198.543 135.129 197.817 137.07 197.997 139.248C198.282 142.71 198.54 146.181 198.585 149.652C198.633 153.231 198.678 156.849 198.24 160.389C197.808 163.908 196.773 167.352 196.041 170.658C192.45 172.659 189.078 174.156 185.169 174.486C182.697 174.696 180.339 174.513 177.936 174.159C177.201 174.051 176.442 174.084 175.695 174.105C172.56 174.192 169.428 174.348 166.296 174.381C161.829 174.429 157.359 174.393 152.889 174.393C150.417 174.393 147.945 174.357 145.476 174.405C143.94 174.435 142.401 174.717 140.871 174.663C137.847 174.558 134.832 174.255 131.808 174.126C130.68 174.078 129.54 174.351 128.403 174.375C126.282 174.42 124.161 174.39 122.04 174.39C120.042 174.39 118.044 174.426 116.046 174.381C113.31 174.318 110.58 174.144 107.844 174.114C106.512 174.099 105.15 174.168 103.848 174.429C100.74 175.053 97.728 174.351 94.692 173.964C93.663 173.832 92.628 173.472 91.614 173.523C87.531 173.73 83.619 172.86 79.704 171.894C78.513 171.6 77.253 171.378 76.035 171.429C72.57 171.57 69.36 170.58 66.168 169.449C64.212 168.756 63.6 166.989 62.847 165.3C60.996 161.142 61.683 156.828 61.872 152.52C62.016 149.256 61.983 145.983 61.947 142.716C61.929 141.033 61.839 139.335 61.59 137.673C61.401 136.41 60.912 135.192 60.609 134.127L60.618 134.115ZM191.628 164.46C191.847 161.412 192.15 158.154 192.288 154.887C192.354 153.309 191.997 151.716 192.036 150.135C192.273 140.874 191.514 131.604 192.537 122.343C192.837 119.628 192.099 116.814 192.048 114.042C191.997 111.312 192.279 108.576 192.3 105.843C192.345 100.551 192.351 95.256 192.306 89.964C192.24 82.338 192.147 74.712 191.985 67.086C191.955 65.7179 191.583 64.347 191.268 63C191.181 62.622 190.797 62.142 190.446 62.025C189.294 61.644 188.103 61.218 186.912 61.167C185.136 61.092 183.345 61.395 181.56 61.398C179.874 61.398 178.191 61.128 176.505 61.14C173.571 61.164 170.637 61.446 167.706 61.389C163.035 61.299 158.37 60.972 153.702 60.843C151.92 60.795 150.135 61.092 148.35 61.098C146.766 61.101 145.182 60.852 143.595 60.843C142.359 60.834 141.123 61.107 139.89 61.098C138.405 61.089 136.914 60.792 135.435 60.846C132.411 60.957 129.396 61.299 126.372 61.395C123.045 61.5 119.73 61.191 116.406 60.933C113.133 60.681 109.794 61.29 106.485 61.524C105.681 61.494 104.838 61.359 104.043 61.086C102.441 60.54 100.878 60.498 99.249 61.008C98.412 61.272 97.413 61.569 96.627 61.35C93.933 60.597 92.121 61.791 90.699 63.417C90.387 64.935 90.198 66.159 89.877 67.347C89.193 69.909 88.74 72.4829 88.923 75.153C89.07 77.283 89.229 79.422 89.211 81.555C89.175 86.235 89.04 90.9149 88.932 95.5949C88.842 99.4259 88.668 103.257 88.653 107.091C88.641 109.824 88.929 112.557 88.914 115.29C88.86 124.665 88.701 134.037 88.65 143.412C88.635 146.445 88.824 149.478 88.935 152.511C89.025 154.944 89.133 157.377 89.238 159.81C89.247 160.008 89.25 160.218 89.319 160.398C90.621 163.713 92.766 166.404 96.324 167.076C99.954 167.76 103.713 167.82 107.421 168.036C108.846 168.117 110.289 167.82 111.726 167.79C113.997 167.742 116.268 167.814 118.539 167.769C122.073 167.7 125.607 167.451 129.135 167.505C133.506 167.574 137.871 168.015 142.242 168.03C145.959 168.042 149.679 167.613 153.399 167.502C155.178 167.448 156.966 167.754 158.751 167.763C165.543 167.796 172.335 167.85 179.127 167.745C182.493 167.694 185.856 167.316 189.15 167.091C189.966 166.221 190.731 165.408 191.622 164.457L191.628 164.46ZM124.284 43.053C126 41.415 127.899 40.767 129.693 41.07C130.473 41.202 131.265 41.31 132.051 41.316C135.297 41.343 138.543 41.292 141.786 41.34C143.721 41.37 145.656 41.622 147.588 41.607C151.119 41.58 154.653 41.448 158.184 41.316C160.353 41.235 162.519 41.076 165.039 40.929C165.501 40.272 166.179 39.306 166.893 38.289C166.461 28.389 167.838 18.483 166.893 8.44196C166.458 7.91096 165.762 7.59296 165.393 7.05296C164.616 5.90996 163.608 5.66096 162.324 5.72696C159.792 5.85596 157.257 5.90696 154.725 5.95496C153.153 5.98496 151.578 5.90696 150.009 5.96096C148.524 6.01196 147.042 6.24596 145.557 6.25196C144.123 6.26096 142.689 6.01496 141.252 5.99996C137.334 5.96096 133.416 6.02096 129.498 5.97896C122.919 5.90696 116.343 5.76896 109.764 5.70296C108.531 5.69096 107.295 5.93396 106.059 5.97596C103.713 6.05396 101.811 7.90496 101.844 10.269C101.871 12.303 102.12 14.337 102.108 16.371C102.09 19.404 101.847 22.434 101.85 25.467C101.85 30.33 101.4 35.235 103.044 40.332C103.338 40.5 103.89 41.028 104.514 41.127C106.17 41.391 107.856 41.439 109.524 41.637C110.298 41.727 111.078 41.889 111.813 42.141C114.258 42.969 116.304 44.289 117.942 46.407C119.172 48 120.921 49.185 122.349 50.637C123.315 51.618 124.125 52.752 125.082 53.913C125.571 53.715 126.039 53.526 126.216 53.457C125.844 49.77 124.101 46.617 124.284 43.053ZM18.654 125.133C18.723 125.247 18.789 125.361 18.858 125.475C20.94 125.103 23.034 124.773 25.104 124.341C26.121 124.131 27.087 123.675 28.101 123.435C33.735 122.097 39.375 120.789 45.231 119.418C45.555 119.127 46.098 118.644 46.563 118.227C46.371 117.573 46.116 117.069 46.086 116.553C45.945 114.171 45.933 111.783 45.747 109.407C45.603 107.586 45.405 105.75 44.991 103.974C43.92 99.396 42.714 94.851 41.475 89.937C40.302 89.121 38.967 87.999 36.855 88.65C33.684 89.628 30.447 90.4109 27.225 91.2179C25.122 91.743 22.902 91.929 20.898 92.7C18.981 93.438 17.037 93.597 15.081 93.741C13.731 93.84 12.543 94.1069 11.226 95.25C11.1 96.2579 10.596 97.617 10.83 98.835C11.838 104.085 13.008 109.308 14.223 114.513C14.922 117.501 15.822 120.441 16.674 123.561C17.256 124.023 17.955 124.575 18.654 125.13V125.133Z" fill="#000002" fill-opacity="0.85"/>
<path d="M81.609 193.2C81.534 193.053 81.36 192.711 81.192 192.378C81.783 191.973 82.302 191.613 82.824 191.256L82.86 191.451C85.221 191.028 87.579 190.563 89.949 190.188C92.586 189.771 95.226 189.318 97.881 189.087C101.439 188.775 105.012 188.589 108.582 188.472C113.559 188.307 118.539 188.289 123.516 188.139C125.043 188.094 126.558 187.8 128.082 187.65C128.775 187.581 129.474 187.554 130.17 187.566C135.648 187.656 141.129 187.677 146.601 187.884C151.158 188.055 155.709 188.436 160.26 188.751C164.316 189.033 168.372 189.297 172.419 189.675C175.818 189.993 179.208 190.41 182.583 190.917C183.495 191.055 184.332 191.682 185.181 192.072C184.854 193.851 183.534 193.668 182.562 193.824C179.145 194.376 175.713 194.823 172.284 195.291C171.744 195.366 171.189 195.321 170.643 195.357C166.539 195.642 162.438 196.029 158.331 196.191C155.604 196.299 152.865 196.068 150.132 196.023C146.964 195.972 143.799 195.948 140.631 195.93C138.435 195.918 136.239 195.909 134.043 195.96C131.409 196.023 128.775 196.266 126.147 196.218C123.024 196.161 119.91 195.846 116.787 195.714C115.401 195.654 114.006 195.768 112.617 195.801C111.126 195.837 109.638 195.885 108.147 195.903C106.524 195.921 104.901 195.948 103.281 195.9C101.397 195.843 99.513 195.744 97.635 195.594C95.958 195.462 94.293 195.201 92.619 195.063C89.757 194.829 86.886 194.718 84.174 193.56C83.505 193.275 82.689 193.338 81.615 193.2H81.609Z" fill="#000002" fill-opacity="0.85"/>
<path d="M205.308 90.3449C206.925 88.4189 208.566 86.6609 211.611 88.0979C212.022 88.6049 212.61 89.3309 213.27 90.1439C213.321 92.4809 212.313 94.2089 209.721 95.2589C207.351 95.7629 204.72 93.5159 205.308 90.3479V90.3449Z" fill="#000002" fill-opacity="0.85"/>
<path d="M87.4141 47.6368C86.8441 47.8408 85.8721 48.1918 84.9481 48.5248C84.1591 48.2638 83.4511 48.0268 82.6981 47.7778C82.2181 47.1928 81.7201 46.5838 81.2521 46.0108C81.2881 45.2728 81.3181 44.6008 81.3571 43.7938C82.0681 42.6118 82.6711 41.1208 84.3631 40.7518C85.3591 41.0278 86.2981 41.2858 87.3991 41.5888C89.3101 43.2598 89.3461 45.2428 87.4171 47.6368H87.4141Z" fill="#000002" fill-opacity="0.85"/>
<path d="M61.671 42.0298C65.892 42.0838 67.053 44.1478 67.299 47.0218C66.237 48.8428 64.422 48.7798 63.33 48.7738C60.18 48.3178 60.15 46.2298 59.673 44.0458C60.249 43.4638 61.011 42.6958 61.671 42.0298Z" fill="#000002" fill-opacity="0.85"/>
<path d="M53.1241 53.4C53.6671 52.986 54.1381 52.623 54.6451 52.239C55.3891 52.158 56.1721 52.071 56.9551 51.984C57.1081 51.822 57.2611 51.663 57.4141 51.501C58.4011 52.491 59.3881 53.481 60.3901 54.486C59.3131 56.253 58.5601 57.489 57.8671 58.629C55.8631 58.851 54.5041 57.987 53.3101 56.967C52.8961 56.613 52.8571 55.719 52.8151 55.059C52.7821 54.537 53.0041 53.997 53.1241 53.4Z" fill="#000002" fill-opacity="0.85"/>
<path d="M191.325 46.9379C191.526 45.9599 191.748 44.8859 191.919 44.0459C193.146 43.4069 194.055 42.9329 195.195 42.3389C195.975 43.0709 196.881 43.9229 197.643 44.6369V47.3789C195.84 49.4249 193.359 49.1759 191.325 46.9349V46.9379Z" fill="#000002" fill-opacity="0.85"/>
<path d="M198.882 50.406C200.73 47.415 201.225 47.208 203.595 47.868C203.997 48.777 204.486 49.884 204.927 50.877C204.573 51.999 204.117 52.863 203.055 53.01C202.158 53.136 201.228 53.037 200.079 53.037C199.722 52.251 199.281 51.285 198.882 50.406Z" fill="#000002" fill-opacity="0.85"/>
<path d="M111.435 110.022C112.833 109.095 114.156 108.666 115.671 108.732C118.953 108.873 122.28 108.648 125.505 109.128C128.844 109.626 132.018 108.681 135.285 108.723C147.306 108.879 159.327 108.945 171.351 109.044C172.854 109.056 174.354 109.044 175.821 109.044C176.682 111.054 176.559 112.953 176.367 114.819C176.067 117.771 175.665 120.714 175.245 123.651C174.558 128.439 173.625 133.188 170.82 137.259C168.939 139.989 166.848 142.578 164.757 145.155C163.017 147.297 160.449 148.341 158.124 149.64C156.093 150.771 153.912 151.734 151.686 152.385C148.872 153.21 145.935 153.387 142.992 152.91C140.748 152.544 138.42 152.487 136.254 151.869C130.248 150.153 125.148 147.054 121.095 142.107C116.034 135.93 113.124 128.844 111.54 121.173C110.787 117.528 110.814 113.769 111.435 110.025V110.022ZM150.189 123.225C150.084 119.589 149.982 116.019 149.886 112.734C148.059 111.231 146.292 111.018 144.483 111.219C140.556 111.66 136.677 112.128 132.663 111.87C127.932 111.567 123.153 112.014 118.551 112.131C117.705 113.19 117.09 113.958 116.391 114.834C117.069 117.558 116.406 120.783 119.166 122.472C121.647 121.533 123.723 120.558 125.904 119.97C128.745 119.205 131.622 118.395 134.643 118.92C139.461 119.76 144.174 120.879 148.23 123.717C148.845 123.561 149.367 123.429 150.186 123.219L150.189 123.225Z" fill="#000002" fill-opacity="0.85"/>
<path d="M115.806 101.142C114.924 100.749 114.231 100.44 113.601 100.158C113.322 97.05 113.688 94.206 114.252 91.371C114.579 89.733 114.801 88.137 115.8 86.646C116.898 85.008 118.182 83.835 119.958 83.01C121.308 82.386 122.601 82.26 124.011 82.533C124.689 82.665 125.391 82.692 126.264 82.785C127.398 83.712 128.697 84.708 129.909 85.803C130.323 86.178 130.554 86.778 130.797 87.309C131.925 89.766 132.543 92.334 132.738 95.052C132.84 96.507 133.452 97.929 133.797 99.231C133.644 101.22 132.078 101.553 130.593 102.195C129.819 101.955 128.934 101.682 127.935 101.373C127.713 99.672 127.662 98.022 127.248 96.468C126.744 94.572 126.06 92.697 125.22 90.924C124.491 89.382 122.892 88.839 121.335 89.007C119.748 89.178 118.464 90.096 118.074 91.845C117.612 93.915 116.64 95.856 116.739 98.082C116.778 98.985 116.199 99.915 115.803 101.139L115.806 101.142Z" fill="#000002" fill-opacity="0.85"/>
<path d="M178.269 100.5C177.72 101.043 177.402 101.358 177.216 101.544C176.406 101.829 175.764 102.054 174.906 102.354C173.412 102.288 172.827 100.872 171.924 99.723C172.329 95.85 171.216 92.409 168.843 89.4C166.44 88.938 164.397 89.247 162.918 91.827C162.732 94.143 162.519 96.807 162.3 99.546C161.784 99.93 161.244 100.326 160.581 100.818C160.122 100.206 159.75 99.708 159.378 99.213C159.297 99.189 159.213 99.162 159.132 99.138C159.414 96.333 159.429 93.468 160.041 90.738C161.001 86.463 163.896 83.682 167.982 82.212C168.729 81.945 169.656 82.173 170.757 82.173C176.058 87.057 178.962 93.039 178.272 100.5H178.269Z" fill="#000002" fill-opacity="0.85"/>
<path d="M112.68 79.392C110.211 77.745 109.239 73.938 110.475 70.983C111.525 70.518 112.629 69.936 113.799 69.534C114.963 69.135 116.19 68.916 117.735 68.532C119.16 69.06 120.996 69.465 122.505 70.395C123.645 71.097 124.779 72.141 125.451 73.842C120.63 74.568 116.517 76.638 112.68 79.389V79.392Z" fill="#000002" fill-opacity="0.85"/>
<path d="M167.217 74.0338C166.641 74.1118 166.134 74.3038 165.675 74.2228C163.743 73.8748 163.455 72.8998 164.496 71.1838C166.101 68.5438 168.462 68.3338 171.084 68.9848C173.004 69.4618 174.891 70.0828 176.775 70.6918C177.849 71.0398 178.02 71.3428 178.563 73.2058C178.314 73.7098 178.008 74.3218 177.705 74.9368C177.756 74.9458 177.807 74.9548 177.858 74.9608C177.567 76.2808 177.279 77.6008 176.91 79.2778C176.088 78.9478 175.512 78.8008 175.02 78.5038C173.49 77.5858 172.017 76.5688 170.475 75.6718C169.404 75.0478 168.258 74.5498 167.217 74.0338Z" fill="#000002" fill-opacity="0.85"/>
<path d="M101.505 110.793C104.233 112.507 105.791 113.838 106.179 114.786C104.583 116.907 99.2431 117.309 97.2301 115.2C98.6311 113.754 99.4291 110.793 101.502 110.793H101.505Z" fill="#000002" fill-opacity="0.85"/>
<path d="M181.299 115.224C182.013 111.747 183.501 110.505 186.42 110.76C187.284 112.26 189.345 113.028 189.669 115.215C189.114 115.515 188.691 115.746 188.424 115.893C185.952 115.662 183.675 115.449 181.299 115.227V115.224Z" fill="#000002" fill-opacity="0.85"/>
<path d="M99.432 107.001C99.741 105.858 100.539 105.39 101.442 105.321C103.71 105.15 105.993 105.003 108.261 105.081C109.077 105.108 110.142 105.411 110.559 106.848C109.983 107.064 109.422 107.409 108.828 107.472C107.817 107.577 106.788 107.511 105.765 107.511C103.923 107.511 102.081 107.532 100.239 107.487C99.966 107.481 99.699 107.169 99.432 107.001Z" fill="#000002" fill-opacity="0.85"/>
<path d="M127.092 14.5889C128.133 12.9209 129.651 12.8159 131.247 12.8849C133.779 12.9959 136.311 13.0679 138.84 13.1939C139.671 13.2359 140.496 13.3859 141.195 13.4729C141.705 14.1449 142.095 14.6579 142.557 15.2669C142.557 19.7609 142.572 24.3479 142.542 28.9319C142.536 29.7179 142.386 30.5099 142.23 31.2839C141.951 32.6909 140.766 33.3989 139.635 33.7079C136.548 34.5509 133.35 34.6919 130.215 34.0199C127.926 33.5309 126.9 31.7879 126.762 29.0459C126.558 24.9659 126.69 20.8679 126.726 16.7789C126.732 16.0469 126.963 15.3179 127.092 14.5889ZM139.404 30.4169C139.659 28.6259 140.1 26.8379 140.121 25.0469C140.142 23.0309 139.812 21.0059 139.578 18.9929C139.473 18.0779 139.23 17.1809 139.083 16.4429C137.754 15.7919 136.689 15.2969 135.432 15.8249C135.096 15.9659 134.61 15.9299 134.253 15.8039C132.306 15.1229 130.911 16.0769 129.435 17.3489C129.435 20.8199 129.342 24.3539 129.498 27.8789C129.537 28.7909 129.762 29.9339 130.878 30.5369C133.68 32.0579 136.395 31.3889 139.401 30.4169H139.404Z" fill="#000002" fill-opacity="0.85"/>
<path d="M146.775 33.1019C146.685 32.0189 146.538 30.8429 146.496 29.6639C146.37 26.1389 146.205 22.6109 146.226 19.0829C146.235 17.6429 146.679 16.2059 146.952 14.6039C148.914 14.1989 150.639 13.7849 152.382 13.5029C153.99 13.2419 155.616 13.0739 157.242 12.9689C157.839 12.9299 158.487 13.1129 159.054 13.3379C159.69 13.5899 160.26 14.0039 160.713 14.2679C163.59 19.2539 162.543 24.6179 162.543 29.8349C162.543 31.2149 161.718 32.5919 161.352 33.7199C158.562 34.6979 148.305 34.2839 146.772 33.1019H146.775ZM150.873 30.9809C152.784 31.2569 154.35 31.4849 155.988 31.7219C156.294 31.6259 156.669 31.4969 157.053 31.3889C159.393 30.7259 160.149 29.1059 159.99 26.7959C159.81 24.2219 159.816 21.6359 159.648 19.0589C159.567 17.7899 158.937 16.8089 157.608 16.4279C156.75 16.1819 155.91 15.8459 155.04 15.6749C152.871 15.2459 150.957 15.8669 149.211 17.1329V28.9169C149.745 29.5799 150.36 30.3449 150.873 30.9809Z" fill="#000002" fill-opacity="0.85"/>
<path d="M107.97 15.378C108.45 14.952 108.891 14.562 109.329 14.172C109.317 14.085 109.308 13.995 109.296 13.908C112.683 13.563 116.07 13.221 119.379 12.885C121.377 13.728 122.502 15.111 123.078 17.13C123.831 19.776 123.651 22.449 123.678 25.125C123.693 26.721 123.612 28.317 123.699 29.907C123.798 31.665 123.135 32.994 121.689 34.077H109.581C108.096 33.204 107.433 31.899 107.511 30.066C107.718 25.203 107.823 20.334 107.97 15.378ZM112.146 16.041C110.751 16.692 110.439 17.889 110.472 19.344C110.499 20.526 110.259 21.708 110.238 22.893C110.196 25.317 109.851 27.789 111.015 30.072C111.24 30.516 111.675 31.155 112.041 31.176C114.273 31.299 116.451 32.085 118.773 31.329C120.078 30.906 120.612 30.198 120.681 29.055C120.849 26.283 121.089 23.493 120.942 20.73C120.855 19.107 120.729 17.223 119.025 16.206C116.661 16.599 114.45 14.727 112.143 16.041H112.146Z" fill="#000002" fill-opacity="0.85"/>
<path d="M19.821 101.565C21.351 100.302 22.395 99.183 23.664 98.448C25.815 97.2 28.104 96.246 30.69 97.293C32.301 97.944 33.933 98.535 35.559 99.15C36.726 99.591 37.269 100.536 37.761 101.616C38.892 104.1 39.153 106.722 38.823 109.347C38.673 110.556 37.956 111.762 37.269 112.818C35.469 115.587 32.934 117 29.532 117.213C26.643 117.393 24.219 116.226 22.248 114.648C20.553 113.295 18.879 111.333 19.113 108.699C19.335 106.2 19.611 103.707 19.827 101.565H19.821ZM31.446 100.728C24.954 99.57 21.243 105.381 22.866 110.505C24.753 113.235 28.179 112.38 30.258 113.835C33.984 113.151 35.178 110.235 35.379 107.646C35.586 104.976 34.14 102.276 31.446 100.728Z" fill="#000002" fill-opacity="0.85"/>
</g>
<defs>
<clipPath id="clip0_18_571">
<rect width="214" height="197" fill="white"/>
</clipPath>
</defs>
</svg>
